<?xml version="1.0" encoding="UTF-8" standalone="no"?>
<!-- Generator: Adobe Illustrator 18.1.1, SVG Export Plug-In . SVG Version: 6.00 Build 0)  -->

<svg
   xmlns:osb="http://www.openswatchbook.org/uri/2009/osb"
   xmlns:dc="http://purl.org/dc/elements/1.1/"
   xmlns:cc="http://creativecommons.org/ns#"
   xmlns:rdf="http://www.w3.org/1999/02/22-rdf-syntax-ns#"
   xmlns:svg="http://www.w3.org/2000/svg"
   xmlns="http://www.w3.org/2000/svg"
   xmlns:xlink="http://www.w3.org/1999/xlink"
   xmlns:sodipodi="http://sodipodi.sourceforge.net/DTD/sodipodi-0.dtd"
   xmlns:inkscape="http://www.inkscape.org/namespaces/inkscape"
   version="1.1"
   id="Capa_1"
   x="0px"
   y="0px"
   viewBox="0 0 512.00001 512.00001"
   xml:space="preserve"
   inkscape:version="0.91 r13725"
   sodipodi:docname="512х512.svg"
   width="512"
   height="512"
   inkscape:export-filename="D:\prj\android\SCounter\add_pict\512х512.png"
   inkscape:export-xdpi="90"
   inkscape:export-ydpi="90"><metadata
   id="metadata73"><rdf:RDF><cc:Work
       rdf:about=""><dc:format>image/svg+xml</dc:format><dc:type
         rdf:resource="http://purl.org/dc/dcmitype/StillImage" /><dc:title></dc:title></cc:Work></rdf:RDF></metadata><defs
   id="defs71"><linearGradient
     id="linearGradient4170"
     osb:paint="solid"><stop
       style="stop-color:#000000;stop-opacity:1;"
       offset="0"
       id="stop4172" /></linearGradient><linearGradient
     id="linearGradient4205"
     osb:paint="solid"><stop
       style="stop-color:#fffcfe;stop-opacity:1;"
       offset="0"
       id="stop4207" /></linearGradient><linearGradient
     inkscape:collect="always"
     xlink:href="#linearGradient4170"
     id="linearGradient4174"
     x1="0"
     y1="-228.14499"
     x2="512"
     y2="-228.14499"
     gradientUnits="userSpaceOnUse" /></defs><sodipodi:namedview
   pagecolor="#ffffff"
   bordercolor="#666666"
   borderopacity="1"
   objecttolerance="10"
   gridtolerance="10"
   guidetolerance="10"
   inkscape:pageopacity="0"
   inkscape:pageshadow="2"
   inkscape:window-width="1680"
   inkscape:window-height="988"
   id="namedview69"
   showgrid="false"
   inkscape:zoom="1.4977311"
   inkscape:cx="230.29125"
   inkscape:cy="250.98305"
   inkscape:window-x="-8"
   inkscape:window-y="-8"
   inkscape:window-maximized="1"
   inkscape:current-layer="layer2"
   inkscape:snap-grids="false" />

<g
   id="g39"
   transform="translate(0,484.145)">
</g>
<g
   id="g41"
   transform="translate(0,484.145)">
</g>
<g
   id="g43"
   transform="translate(0,484.145)">
</g>
<g
   id="g45"
   transform="translate(0,484.145)">
</g>
<g
   id="g47"
   transform="translate(0,484.145)">
</g>
<g
   id="g49"
   transform="translate(0,484.145)">
</g>
<g
   id="g51"
   transform="translate(0,484.145)">
</g>
<g
   id="g53"
   transform="translate(0,484.145)">
</g>
<g
   id="g55"
   transform="translate(0,484.145)">
</g>
<g
   id="g57"
   transform="translate(0,484.145)">
</g>
<g
   id="g59"
   transform="translate(0,484.145)">
</g>
<g
   id="g61"
   transform="translate(0,484.145)">
</g>
<g
   id="g63"
   transform="translate(0,484.145)">
</g>
<g
   id="g65"
   transform="translate(0,484.145)">
</g>
<g
   inkscape:groupmode="layer"
   id="layer1"
   inkscape:label="Layer Back"
   transform="translate(0,484.145)"><rect
     style="fill:url(#linearGradient4174);fill-opacity:1.0;stroke:#000000;stroke-width:18.341;stroke-opacity:0;stroke-miterlimit:4;stroke-dasharray:none;stroke-linejoin:round;opacity:1"
     id="rect4203"
     width="493.65906"
     height="493.65906"
     x="9.1704721"
     y="-474.97452"
     rx="56.768837"
     inkscape:export-xdpi="90"
     inkscape:export-ydpi="90" /></g><g
   id="g67"
   transform="translate(0,484.145)">
</g>
<g
   inkscape:groupmode="layer"
   id="layer2"
   inkscape:label="Layer Front"
   transform="translate(0,484.145)"
   style="opacity:1"><g
     id="g3"
     transform="matrix(15.242228,0,0,13.601204,64.191283,-421.98437)"
     style="">
	<path
   d="M 27.258299,5.9581341 14.176,20.18 c -0.338,0.336 -0.885,0.336 -1.223,0 l -0.27,-0.27 0,0 L 12.39,19.617 11.122,18.349 11.104,18.322 5.297,12.47 c -0.336,-0.336 -0.336,-0.885 0,-1.221 L 6.4593234,9.1706213 c 0.338,-0.339 0.7982375,-0.4722177 1.1362375,-0.1332177 L 13.807059,12.440436 24.551,3.7 c 0.338,-0.337 0.885,-0.337 1.221,0 l 1.32081,1.2790803 c 0,0 0.51119,0.302541 0.165489,0.9790538 z"
   id="path5"
   inkscape:connector-curvature="0"
   sodipodi:nodetypes="ccccccccccccccccc"
   style="fill:#ffffff;fill-opacity:1" />
	<path
   d="m 21.795,22.613 c 0,0.973 -0.793,1.766 -1.768,1.766 l -16.492,0 c -0.975,0 -1.768,-0.793 -1.768,-1.766 l 0,-17.372 c 0,-0.973 0.793,-1.766 1.768,-1.766 l 16.492,0 c 0.975,0 1.768,0.793 1.768,1.766 l 0,0 1.256,-1.162 C 23.254,2.649 21.809,1.71 20.027,1.71 l -16.492,0 C 1.582,1.71 0,3.29 0,5.241 l 0,17.372 c 0,1.951 1.582,3.533 3.535,3.533 l 16.492,0 c 1.953,0 3.535,-1.582 3.535,-3.533 l 0,-10.356 -1.768,1.924 0.001,8.432 0,0 z"
   id="path7"
   style="fill:#ff0000;fill-opacity:1"
   inkscape:connector-curvature="0" />
	<g
   id="g9"
   style="">
	</g>
	<g
   id="g11"
   style="">
	</g>
	<g
   id="g13"
   style="">
	</g>
	<g
   id="g15"
   style="">
	</g>
	<g
   id="g17"
   style="">
	</g>
	<g
   id="g19"
   style="">
	</g>
	<g
   id="g21"
   style="">
	</g>
	<g
   id="g23"
   style="">
	</g>
	<g
   id="g25"
   style="">
	</g>
	<g
   id="g27"
   style="">
	</g>
	<g
   id="g29"
   style="">
	</g>
	<g
   id="g31"
   style="">
	</g>
	<g
   id="g33"
   style="">
	</g>
	<g
   id="g35"
   style="">
	</g>
	<g
   id="g37"
   style="">
	</g>
</g></g></svg>